<?xml version="1.0" encoding="UTF-8" standalone="no"?>
<!-- Created with Inkscape (http://www.inkscape.org/) -->

<svg
   xmlns:dc="http://purl.org/dc/elements/1.1/"
   xmlns:cc="http://creativecommons.org/ns#"
   xmlns:rdf="http://www.w3.org/1999/02/22-rdf-syntax-ns#"
   xmlns:svg="http://www.w3.org/2000/svg"
   xmlns="http://www.w3.org/2000/svg"
   xmlns:sodipodi="http://sodipodi.sourceforge.net/DTD/sodipodi-0.dtd"
   xmlns:inkscape="http://www.inkscape.org/namespaces/inkscape"
   width="48"
   height="48"
   id="svg9267"
   version="1.1"
   inkscape:version="0.91 r13725"
   viewBox="0 0 48 48"
   sodipodi:docname="Gmail_Logo_Color.svg">
  <defs
     id="defs9269">
    <clipPath
       clipPathUnits="userSpaceOnUse"
       id="cp44">
      <path
         inkscape:connector-curvature="0"
         d="m 978,843 0,54 c 0,2.76 2.24,5 5,5 l 78,0 c 2.77,0 5,-2.24 5,-5 l 0,-54 c 0,-2.76 -2.23,-5 -5,-5 l -78,0 c -2.76,0 -5,2.24 -5,5 z"
         id="path717" />
    </clipPath>
    <linearGradient
       id="grd104"
       gradientUnits="userSpaceOnUse"
       x1="1047.021"
       y1="911.00299"
       x2="981.96399"
       y2="833.03198">
      <stop
         offset="0"
         stop-color="#dad8d8"
         stop-opacity="0"
         id="stop720" />
      <stop
         offset="1"
         stop-color="#c6c6c6"
         id="stop722" />
    </linearGradient>
  </defs>
  <sodipodi:namedview
     id="base"
     pagecolor="#4d4d4d"
     bordercolor="#666666"
     borderopacity="1.0"
     inkscape:pageopacity="0"
     inkscape:pageshadow="2"
     inkscape:zoom="30.929313"
     inkscape:cx="23.111876"
     inkscape:cy="16.876302"
     inkscape:current-layer="layer1"
     showgrid="true"
     inkscape:grid-bbox="true"
     inkscape:document-units="px"
     inkscape:window-width="1920"
     inkscape:window-height="1025"
     inkscape:window-x="-8"
     inkscape:window-y="-8"
     inkscape:window-maximized="1">
    <inkscape:grid
       type="xygrid"
       id="grid4160" />
  </sodipodi:namedview>
  <metadata
     id="metadata9272">
    <rdf:RDF>
      <cc:Work
         rdf:about="">
        <dc:format>image/svg+xml</dc:format>
        <dc:type
           rdf:resource="http://purl.org/dc/dcmitype/StillImage" />
        <dc:title></dc:title>
      </cc:Work>
    </rdf:RDF>
  </metadata>
  <g
     id="layer1"
     inkscape:label="Layer 1"
     inkscape:groupmode="layer">
    <g
       id="g4148"
       transform="translate(-0.45264503,0)">
      <g
         id="g3174"
         transform="matrix(0.41811966,0,0,0.41811966,-403.31829,-339.7641)">
        <path
           d="m 978,843 0,54 c 0,2.76 2.24,5 5,5 l 78,0 c 2.77,0 5,-2.24 5,-5 l 0,-54 c 0,-2.76 -2.23,-5 -5,-5 l -78,0 c -2.76,0 -5,2.24 -5,5 z"
           style="fill:#efefef"
           id="path3176"
           inkscape:connector-curvature="0" />
        <g
           clip-path="url(#cp44)"
           id="g3178">
          <path
             d="m 988.21,850.98 0,50.9 43.88,-31.11 z"
             style="fill:#e3e3e3"
             id="Mid Shadow"
             inkscape:connector-curvature="0" />
          <path
             d="m 988,849.31 -5.55,-4.44 c -2.76,0 -4.45,-4.18 -4.45,-1.42 l 0,53.56 c 0,2.76 2.24,5 5,5 l 5,0 z"
             style="fill:#d54c40"
             id="Left Bar"
             inkscape:connector-curvature="0" />
          <path
             d="m 979.99,840.53 c -0.04,0.28 0.25,-1.82 -0.11,0.85 -0.36,2.66 0.01,4.02 -0.23,5.79 23.99,24.53 41.42,42.53 65.41,67.06 l 31.72,0.33 c -0.09,-26.36 -0.18,-46.47 -0.26,-72.83 0,-0.25 0,-6.76 0,-7.02 0,0 -11.42,8.55 -23.3,17.48 -10.71,8.05 -21.49,16.53 -30.15,17.12 -12.96,0.89 -27.24,-29.06 -40.19,-28.17 z"
             style="fill:url(#grd104)"
             id="Big Shadow"
             inkscape:connector-curvature="0" />
          <path
             d="m 1056,902 5,0 c 2.76,0 5,-2.24 5,-5 l 0,-53 c 0,-2.76 -2.74,0.5 -5.5,0.5 -1.61,0 -6.29,3.5 -4.5,3.5 0.12,0 0.06,-0.82 0,-0.82 z"
             style="fill:#c33b2c"
             id="Right Bar"
             inkscape:connector-curvature="0" />
          <path
             d="m 1021.99,864.18 -35.51,-25.16 c -2.48,-1.7 -6.1,-1.33 -7.7,1.28 l -0.21,0.39 c -1.1,2.04 -0.68,5.34 1.81,7.15 l 41.64,30.09 41.5,-30.03 c 2.5,-1.81 3.12,-4.73 1.92,-7.21 l -0.31,-0.52 c -1.76,-2.63 -5.14,-2.81 -8.42,-0.89 z"
             style="fill:#dd4d40"
             id="Top Shadow"
             inkscape:connector-curvature="0" />
          <path
             d="m 979.92,843.76 c -0.22,1.82 -0.38,3.33 -0.38,3.33 l 8.45,8.66 0,-6.45 -5.55,-4.44 c -0.99,0 -1.84,-0.54 -2.53,-1.1 z"
             style="fill:#af493f"
             id="Small Shadow"
             inkscape:connector-curvature="0" />
          <path
             d="m 1021.99,864.18 -35.51,-25.16 c -2.48,-1.7 -6.1,-1.33 -7.7,1.28 l -0.21,0.39 c -1.1,2.04 -0.68,5.34 1.81,7.15 l 41.64,30.09 41.5,-30.03 c 2.5,-1.81 3.12,-4.73 1.92,-7.21 l -0.31,-0.52 c -1.76,-2.63 -5.14,-2.81 -8.42,-0.89 z"
             style="fill:#dd4d40"
             id="path3186"
             inkscape:connector-curvature="0" />
        </g>
      </g>
    </g>
  </g>
</svg>
