<?xml version="1.0" encoding="UTF-8" standalone="no"?>
<!-- Created with Inkscape (http://www.inkscape.org/) -->

<svg
   xmlns:dc="http://purl.org/dc/elements/1.1/"
   xmlns:cc="http://creativecommons.org/ns#"
   xmlns:rdf="http://www.w3.org/1999/02/22-rdf-syntax-ns#"
   xmlns:svg="http://www.w3.org/2000/svg"
   xmlns="http://www.w3.org/2000/svg"
   xmlns:sodipodi="http://sodipodi.sourceforge.net/DTD/sodipodi-0.dtd"
   xmlns:inkscape="http://www.inkscape.org/namespaces/inkscape"
   width="48"
   height="48"
   id="svg9267"
   version="1.1"
   inkscape:version="0.91 r13725"
   viewBox="0 0 48 48"
   sodipodi:docname="Youtube_Logo_Color.svg">
  <defs
     id="defs9269">
    <clipPath
       clipPathUnits="userSpaceOnUse"
       id="cp44">
      <path
         inkscape:connector-curvature="0"
         d="m 978,843 0,54 c 0,2.76 2.24,5 5,5 l 78,0 c 2.77,0 5,-2.24 5,-5 l 0,-54 c 0,-2.76 -2.23,-5 -5,-5 l -78,0 c -2.76,0 -5,2.24 -5,5 z"
         id="path717" />
    </clipPath>
    <linearGradient
       id="grd104"
       gradientUnits="userSpaceOnUse"
       x1="1047.021"
       y1="911.00299"
       x2="981.96399"
       y2="833.03198">
      <stop
         offset="0"
         stop-color="#dad8d8"
         stop-opacity="0"
         id="stop720" />
      <stop
         offset="1"
         stop-color="#c6c6c6"
         id="stop722" />
    </linearGradient>
    <linearGradient
       id="grd83"
       gradientUnits="userSpaceOnUse"
       x1="870.5"
       y1="382"
       x2="870.5"
       y2="446">
      <stop
         offset="0"
         stop-color="#e72b22"
         id="stop556" />
      <stop
         offset="1"
         stop-color="#dd2a22"
         id="stop558" />
    </linearGradient>
  </defs>
  <sodipodi:namedview
     id="base"
     pagecolor="#4d4d4d"
     bordercolor="#666666"
     borderopacity="1.0"
     inkscape:pageopacity="0"
     inkscape:pageshadow="2"
     inkscape:zoom="8.7490654"
     inkscape:cx="28.83782"
     inkscape:cy="26.374985"
     inkscape:current-layer="layer1"
     showgrid="true"
     inkscape:grid-bbox="true"
     inkscape:document-units="px"
     inkscape:window-width="1920"
     inkscape:window-height="1025"
     inkscape:window-x="-8"
     inkscape:window-y="-8"
     inkscape:window-maximized="1" />
  <metadata
     id="metadata9272">
    <rdf:RDF>
      <cc:Work
         rdf:about="">
        <dc:format>image/svg+xml</dc:format>
        <dc:type
           rdf:resource="http://purl.org/dc/dcmitype/StillImage" />
        <dc:title></dc:title>
      </cc:Work>
    </rdf:RDF>
  </metadata>
  <g
     id="layer1"
     inkscape:label="Layer 1"
     inkscape:groupmode="layer">
    <g
       id="g9881"
       transform="translate(3.312085e-6,-4.5999997e-7)">
      <rect
         y="15.996581"
         x="16.801794"
         height="15.544518"
         width="15.201624"
         id="rect9879"
         style="color:#000000;clip-rule:nonzero;display:inline;overflow:visible;visibility:visible;opacity:1;isolation:auto;mix-blend-mode:normal;color-interpolation:sRGB;color-interpolation-filters:linearRGB;solid-color:#000000;solid-opacity:1;fill:#ffffff;fill-opacity:0.98657717;fill-rule:nonzero;stroke:#ffffff;stroke-width:1;stroke-linecap:round;stroke-linejoin:round;stroke-miterlimit:4;stroke-dasharray:none;stroke-dashoffset:0;stroke-opacity:1;color-rendering:auto;image-rendering:auto;shape-rendering:auto;text-rendering:auto;enable-background:accumulate" />
      <g
         id="g2797"
         transform="matrix(0.44124889,0,0,0.44124889,-360.10777,-158.67704)">
        <path
           d="m 861,401 24.96,17.04 2.71,-8.64 z"
           style="fill:#e9e9e9"
           id="path2799"
           inkscape:connector-curvature="0" />
        <path
           d="m 870.43,382 c 21.47,0 31.65,1.03 31.65,1.03 0,0 7.81,0.27 10.86,6.1 0,0 3.05,4.23 3.05,24.87 0,0 0.18,12.77 -1.26,19.57 -1.45,6.79 -4.64,8.77 -4.64,8.77 0,0 -2.05,1.98 -6.57,2.52 -4.52,0.54 -19.17,1.14 -33.09,1.14 0,0 -25.49,-0.01 -34.07,-1.43 -8.59,-1.42 -9.79,-9.41 -9.79,-9.41 0,0 -3.52,-20.25 0,-42.29 0,0 1.02,-8.81 11.28,-9.84 0,0 11.12,-1.03 32.59,-1.03 z m -9.43,19 0,25 25,-12.5 z"
           style="fill:url(#grd83)"
           id="path2801"
           inkscape:connector-curvature="0" />
      </g>
    </g>
  </g>
</svg>
